<svg id="svg-logo" version="1.1" xmlns="http://www.w3.org/2000/svg" xmlns:xlink="http://www.w3.org/1999/xlink" viewBox="0 0 1514.06 718.7" preserveAspectRatio="xMinYMin meet" xml:space="preserve">
<style type="text/css">
             .st0{fill:#FFFFFF;}
         </style>
<defs>
</defs>
<g>
<path class="st0" d="M1218.28,718.41c-34.86,0-69.45,0-104.56,0c0-70.15,0-140.19,0-210.24c-0.36-0.15-0.73-0.31-1.09-0.46
                 c-0.98,1.39-2.01,2.75-2.93,4.18c-29.35,45.28-58.72,90.54-87.95,135.89c-1.92,2.98-3.81,4.27-7.48,4.22
                 c-16.16-0.23-32.33-0.2-48.49-0.01c-3.41,0.04-5.32-1.06-7.15-3.9c-29.29-45.51-58.7-90.95-88.08-136.4
                 c-0.99-1.53-2.03-3.03-3.73-5.55c0,71.34,0,141.58,0,212.18c-35.24,0-69.95,0-104.94,0c0-141.04,0-281.92,0-423.32
                 c2.38,0,4.5,0,6.62,0c21.83,0,43.66,0.1,65.49-0.09c3.94-0.03,6.23,1.18,8.43,4.48c47.93,72.13,95.98,144.18,144.01,216.25
                 c1.1,1.65,2.22,3.29,3.65,5.41c1.43-2.1,2.62-3.83,3.79-5.59c47.62-71.74,95.26-143.45,142.75-215.28
                 c2.62-3.97,5.32-5.37,10.04-5.31c21.99,0.27,43.99,0.12,65.99,0.12c1.79,0,3.58,0,5.65,0
                 C1218.28,436.4,1218.28,577.27,1218.28,718.41z"></path>
<path class="st0" d="M341.11,718.45c0-141.34,0-282.08,0-423.45c2.04,0,3.81,0,5.58,0c55.32,0,110.64-0.24,165.96,0.07
                 c50.74,0.29,98.45,11.94,140.61,41.25c50.72,35.25,78.98,84.19,85.33,145.48c5.17,49.88-3.84,96.99-31.36,139.52
                 c-30.77,47.55-75.33,75.64-129.55,89.44c-21.41,5.45-43.25,7.84-65.3,7.88c-55.49,0.11-110.97,0.04-166.46,0.03
                 C344.46,718.67,342.99,718.54,341.11,718.45z M446.3,623.92c17.17,0,33.81,0.25,50.43-0.08c12.46-0.24,25.06-0.18,37.33-2.05
                 c68.66-10.46,112.97-78.72,95.09-145.78c-13.32-49.95-59.52-85.35-112.84-86.15c-22.15-0.33-44.32-0.09-66.48-0.08
                 c-1.12,0-2.24,0.24-3.53,0.39C446.3,468.02,446.3,545.62,446.3,623.92z"></path>
<path class="st0" d="M0,295.27c105.07,0,209.83,0,315.03,0c0,30.64,0,61.33,0,92.43c-69.79,0-139.54,0-209.73,0
                 c0,30.09,0,59.77,0,89.86c60.39,0,120.49,0,181,0c0,30.47,0,60.53,0,91.18c-60.07,0-120.29,0-181.19,0c0,50.13,0,99.68,0,149.58
                 c-35.4,0-70.11,0-105.11,0C0,577.38,0,436.63,0,295.27z"></path>
<path class="st0" d="M1267.77,335.74c0-23.66-0.16-47.33,0.13-70.99c0.06-5.18-1.37-7.49-6.49-9.12
                 c-45.48-14.52-90.85-29.37-136.25-44.12c-1.11-0.36-2.35-0.52-3.28-1.15c-1.14-0.77-2.02-1.92-3.01-2.91
                 c0.98-0.98,1.79-2.43,2.97-2.86c5.46-2.01,11.02-3.75,16.56-5.55c41.29-13.41,82.57-26.87,123.91-40.12
                 c4.26-1.36,5.58-3.36,5.56-7.76c-0.15-47.99-0.1-95.99-0.09-143.98c0-1.5-0.18-3.04,0.13-4.48c0.21-1.01,0.98-2.51,1.71-2.65
                 c1.06-0.2,2.5,0.38,3.43,1.09c1.01,0.78,1.63,2.08,2.41,3.15c28.19,38.82,56.45,77.58,84.47,116.52c2.9,4.03,5.44,4.62,9.94,3.14
                 c45.67-15.01,91.41-29.82,137.12-44.69c1.27-0.41,2.52-1.07,3.81-1.13c1.01-0.05,2.45,0.36,2.96,1.09c0.49,0.7,0.31,2.18-0.07,3.11
                 c-0.49,1.2-1.45,2.22-2.23,3.29c-28.29,38.95-56.53,77.94-84.96,116.78c-2.72,3.72-2.84,6.15-0.06,9.95
                 c28.44,38.84,56.67,77.83,84.96,116.78c0.69,0.94,1.58,1.81,1.98,2.86c0.43,1.12,0.94,3.05,0.43,3.49
                 c-0.92,0.8-2.57,0.98-3.91,0.98c-1.11,0-2.22-0.64-3.33-1c-45.55-14.83-91.13-29.59-136.62-44.61c-4.86-1.61-7.39-0.49-10.27,3.51
                 c-27.85,38.65-55.9,77.16-83.89,115.71c-0.78,1.08-1.39,2.38-2.39,3.18c-1.05,0.82-2.55,1.66-3.73,1.52
                 c-0.74-0.09-1.52-1.91-1.82-3.07c-0.32-1.26-0.09-2.65-0.09-3.98C1267.77,383.73,1267.77,359.73,1267.77,335.74z"></path>
</g>
</svg>